<svg width="164" height="40" viewBox="0 0 164 40" fill="none" xmlns="http://www.w3.org/2000/svg">
<path d="M71.8674 31.4091C71.2516 31.4091 70.6816 31.0697 70.395 30.5212L61.1159 12.8909C60.6892 12.0818 61.0062 11.0849 61.817 10.6606C62.6309 10.2364 63.6338 10.5485 64.0606 11.3576L71.6906 25.8576L77.6775 11.4909C78.028 10.6485 79.0035 10.2485 79.8509 10.597C80.6984 10.9455 81.1008 11.9121 80.7502 12.7576L73.4007 30.3879C73.1538 30.9818 72.5837 31.3788 71.9375 31.4061C71.9131 31.4061 71.8887 31.4061 71.8613 31.4061L71.8674 31.4091Z" fill="#1A1A1A"/>
<path d="M100.394 31.4091C100.394 31.4091 100.372 31.4091 100.36 31.4091C99.7139 31.397 99.1347 31.0121 98.8756 30.4273L90.9987 12.797C90.6268 11.9636 91.0048 10.9849 91.8431 10.6152C92.6844 10.2424 93.666 10.6212 94.0379 11.4546L100.473 25.8606L107.655 11.394C108.06 10.5758 109.057 10.2394 109.88 10.6424C110.703 11.0455 111.041 12.0364 110.636 12.8546L101.884 30.4849C101.604 31.0485 101.025 31.4061 100.394 31.4061V31.4091Z" fill="#1A1A1A"/>
<path d="M125.948 31.4121C125.311 31.4121 124.701 31.0455 124.427 30.4303L117.992 16.0242L110.81 30.4909C110.404 31.3091 109.408 31.6455 108.584 31.2424C107.761 30.8394 107.423 29.8485 107.829 29.0303L116.58 11.4C116.867 10.8242 117.467 10.4636 118.104 10.4788C118.751 10.4909 119.33 10.8758 119.589 11.4606L127.466 29.0909C127.838 29.9242 127.46 30.903 126.621 31.2727C126.402 31.3697 126.173 31.4152 125.948 31.4152V31.4121Z" fill="#1A1A1A"/>
<path d="M85.8653 31.4091C84.9477 31.4091 84.2039 30.6697 84.2039 29.7576V12.1273C84.2039 11.2152 84.9477 10.4758 85.8653 10.4758C86.7828 10.4758 87.5266 11.2152 87.5266 12.1273V29.7576C87.5266 30.6697 86.7828 31.4091 85.8653 31.4091Z" fill="#1A1A1A"/>
<path d="M132.596 31.4091C131.679 31.4091 130.935 30.6697 130.935 29.7576C130.935 28.8455 131.679 28.1061 132.596 28.1061C134.632 28.1061 136.288 26.4606 136.288 24.4364V12.1273C136.288 11.2152 137.031 10.4758 137.949 10.4758C138.867 10.4758 139.61 11.2152 139.61 12.1273V24.4364C139.61 28.2818 136.461 31.4121 132.593 31.4121L132.596 31.4091Z" fill="#1A1A1A"/>
<path d="M153.468 31.4091C147.17 31.4091 142.936 27.203 142.936 20.9394C142.936 14.6758 147.167 10.4697 153.468 10.4697C159.769 10.4697 164 14.6758 164 20.9394C164 27.203 159.769 31.4091 153.468 31.4091ZM153.468 13.7788C148.956 13.7788 146.262 16.4576 146.262 20.9424C146.262 25.4273 148.956 28.1061 153.468 28.1061C157.98 28.1061 160.674 25.4273 160.674 20.9424C160.674 16.4576 157.98 13.7788 153.468 13.7788Z" fill="#1A1A1A"/>
<path d="M37.6225 2.59697L35.01 0L25.0816 9.8697L17.7657 2.59697L15.1532 0L12.5408 2.59697L2.61242 12.4667L0 15.0636L25.0816 40L32.6598 32.4667L30.0474 29.8697L25.0816 34.803L5.22483 15.0636L15.1532 5.19394L25.0816 15.0636L35.01 5.19394L44.9384 15.0636L37.6225 22.3364L33.9645 18.7L31.352 21.297L35.01 24.9333L37.6225 27.5303L40.2379 24.9333L47.5509 17.6606L50.1663 15.0636L37.6225 2.59697Z" fill="#047ABB"/>
</svg>
